<svg width="56" height="55" viewBox="0 0 56 55" fill="none" xmlns="http://www.w3.org/2000/svg">
<path d="M1.31215 1.05848L53.9843 1.05848L53.9843 53.288L34.0662 53.288L34.0662 33.37C34.0662 33.37 33.181 30.7142 31.4105 30.2716C30.5253 29.829 20.2871 25.7098 13.263 24.0749C12.5022 23.8978 11.4925 23.6323 10.1646 24.0749C7.92082 24.8228 6.62362 25.8454 4.41051 25.8454C2.64002 22.3044 1.31215 10.3536 1.31215 10.3536L1.31215 1.05848Z" stroke="#272C37"/>
<path d="M15.4761 26.288L14.5404 29.8367L12.0295 39.1719C12.0295 39.1719 20.7557 44.4152 25.5382 44.1905C25.7661 43.8111 31.1625 33.1113 31.1625 33.1113C31.1625 33.1113 24.7711 28.0585 15.4761 26.288Z" stroke="#272C37"/>
<path d="M12.2075 30.3024C12.2757 29.8723 12.6905 29.5872 13.1165 29.6778C13.5425 29.7683 13.8056 30.1974 13.6929 30.6181L12.0698 36.6803C12.0103 36.9026 11.7871 37.0394 11.5619 36.9916C11.3368 36.9437 11.1885 36.7279 11.2246 36.5006L12.2075 30.3024Z" stroke="#272C37"/>
<path d="M29.6186 36.3549C29.8231 35.9704 30.3082 35.8359 30.6815 36.0602C31.0548 36.2845 31.1638 36.7759 30.9203 37.137L27.412 42.3405C27.2833 42.5313 27.0277 42.588 26.8304 42.4695C26.6331 42.3509 26.5632 42.0986 26.6713 41.8954L29.6186 36.3549Z" stroke="#272C37"/>
<path d="M12.0295 39.1719C12.0295 39.1719 10.1308 40.613 10.8131 42.0557C13.0895 43.4235 21.2849 47.8314 24.7012 47.3022C25.9924 46.0126 25.5381 44.1905 25.5381 44.1905" stroke="#272C37"/>
</svg>
